<svg xmlns="http://www.w3.org/2000/svg" viewBox="0 0 100 100" width="100" height="100">
  <!-- Coffee cup body (red) -->
  <path d="M 20 30 Q 20 25 25 25 L 55 25 Q 60 25 60 30 L 65 70 Q 65 75 60 75 L 25 75 Q 20 75 20 70 Z" 
        fill="#DC143C" stroke="#8B0000" stroke-width="2"/>
  
  <!-- Coffee liquid (yellow/golden) -->
  <ellipse cx="40" cy="35" rx="18" ry="6" fill="#FFD700"/>
  
  <!-- Handle (red) -->
  <path d="M 60 35 Q 75 35 75 50 Q 75 65 60 65" 
        fill="none" stroke="#DC143C" stroke-width="4" stroke-linecap="round"/>
  
  <!-- Steam (yellow) -->
  <path d="M 30 20 Q 28 15 30 10" fill="none" stroke="#FFA500" stroke-width="2" stroke-linecap="round" opacity="0.8"/>
  <path d="M 40 18 Q 40 12 42 8" fill="none" stroke="#FFD700" stroke-width="2" stroke-linecap="round" opacity="0.8"/>
  <path d="M 50 20 Q 52 15 50 10" fill="none" stroke="#FFA500" stroke-width="2" stroke-linecap="round" opacity="0.8"/>
  
  <!-- Highlights -->
  <ellipse cx="35" cy="40" rx="5" ry="8" fill="rgba(255,255,255,0.3)"/>
</svg>